<?xml version="1.0" encoding="UTF-8"?><svg id="Layer_1" xmlns="http://www.w3.org/2000/svg" viewBox="0 0 319.41 319.56"><defs><style>.cls-1{fill:#1d1d1f;}</style></defs><path class="cls-1" d="M275.79,189.44c0-16.38-9.58-26.06-33.74-31.36l-12.88-2.8c-15.87-3.5-22.06-9.79-22.06-18.87,0-11.88,11.18-18.87,25.65-18.87s25.15,7.79,26.45,20.47h14.47c-.7-19.67-17.37-33.55-40.53-33.55s-40.92,13.48-40.92,32.55c0,16.48,10.08,27.06,33.34,32.06l12.88,2.8c16.07,3.5,22.56,9.99,22.56,19.67,0,11.48-11.48,19.67-27.15,19.67-16.67,0-28.25-7.59-29.94-20.07h-14.47c1.4,20.07,18.27,33.05,43.62,33.05,25.85.1,42.72-13.28,42.72-34.75h0ZM183.16,164.37c0-36.85-20.56-60.02-53.5-60.02s-53.5,23.17-53.5,60.02,20.56,59.92,53.5,59.92,53.5-23.07,53.5-59.92ZM63.98,133.81c0-4.49-3.59-8.19-8.18-8.19s-8.18,3.6-8.18,8.19,3.69,8.19,8.18,8.19c4.59-.1,8.18-3.69,8.18-8.19ZM62.98,222.39v-69.3h-14.27v69.3h14.27ZM319.41,87.88v143.8c0,11.38-.1,29.36-6.29,45.34-3.09,7.89-10.28,18.97-20.46,26.86-5.89,4.49-12.88,8.89-22.46,11.68-10.28,3-22.96,3.99-38.63,3.99H87.84c-15.67,0-28.35-1-38.63-4.09-9.58-2.9-16.57-7.19-22.46-11.68-10.18-7.79-17.37-18.97-20.46-26.86C.1,261.04,0,243.06,0,231.68V87.88c0-11.38.1-29.36,6.29-45.34,3.09-7.89,10.28-18.97,20.46-26.86,5.89-4.49,12.88-8.89,22.46-11.68C59.49,1,72.17,0,87.84,0h143.73c15.77,0,28.35,1,38.63,4.09,9.58,2.9,16.67,7.19,22.46,11.68,10.18,7.79,17.37,18.97,20.46,26.86,6.19,15.88,6.29,33.85,6.29,45.24h0ZM168.29,164.37c0,28.56-14.87,46.64-38.63,46.64s-38.63-18.07-38.63-46.64,14.87-46.64,38.63-46.64,38.63,17.97,38.63,46.64Z"/></svg>