<?xml version="1.0" encoding="UTF-8"?><svg id="Layer_1" xmlns="http://www.w3.org/2000/svg" viewBox="0 0 248.05 58.24"><path id="path2" d="M0,57.3h9.73v-25.35c0-5,3.28-8.63,7.97-8.63s7.34,2.85,7.34,7.46v26.52h9.45v-25.59c0-4.96,3.2-8.4,7.89-8.4s7.42,2.89,7.42,7.97v26.02h9.73v-28.4c0-8.28-5.35-13.79-13.52-13.79-5.98,0-10.9,3.2-12.89,8.32h-.23c-1.52-5.31-5.7-8.32-11.56-8.32s-10,3.16-11.8,7.97h-.2v-7.19H0v41.41h0ZM80.82,50.63c-4.22,0-7.03-2.15-7.03-5.55s2.7-5.39,7.38-5.7l9.57-.59v3.16c0,5-4.41,8.67-9.92,8.67h0ZM77.89,57.97c5.31,0,10.51-2.77,12.89-7.27h.2v6.6h9.38v-28.52c0-8.32-6.68-13.75-16.95-13.75s-17.15,5.55-17.58,13.28h9.02c.62-3.44,3.55-5.66,8.16-5.66s7.73,2.5,7.73,6.84v2.97l-10.94.62c-10.08.62-15.74,5.04-15.74,12.38s5.82,12.5,13.83,12.5h0ZM143.05,30.66c-.66-8.71-7.42-15.62-18.36-15.62-12.03,0-19.84,8.32-19.84,21.56s7.81,21.52,19.92,21.52c10.39,0,17.54-6.09,18.32-15.35h-9.18c-.9,4.69-4.1,7.5-9.02,7.5-6.17,0-10.16-5-10.16-13.67s3.95-13.67,10.08-13.67c5.2,0,8.28,3.32,9.06,7.73h9.18,0ZM173.09,0c-16.45,0-26.76,11.21-26.76,29.14s10.31,29.1,26.76,29.1,26.72-11.17,26.72-29.1S189.5,0,173.09,0ZM173.09,8.59c10.04,0,16.45,7.97,16.45,20.55s-6.41,20.51-16.45,20.51-16.45-7.97-16.45-20.51,6.37-20.55,16.45-20.55ZM203.91,41.45c.43,10.39,8.95,16.8,21.91,16.8,13.63,0,22.23-6.72,22.23-17.42,0-8.4-4.84-13.12-16.29-15.74l-6.48-1.48c-6.91-1.64-9.77-3.83-9.77-7.58,0-4.69,4.3-7.81,10.66-7.81s10.86,3.16,11.33,8.44h9.61C246.88,6.72,238.68,0,226.26,0s-20.98,6.76-20.98,16.76c0,8.05,4.92,13.05,15.31,15.43l7.3,1.72c7.11,1.68,10,4.02,10,8.09,0,4.69-4.73,8.05-11.52,8.05s-12.07-3.4-12.69-8.59h-9.77Z"/></svg>