<?xml version="1.0" encoding="UTF-8"?><svg id="uuid-d191a18b-b5b0-41da-90cc-c75ec1bc1c5d" xmlns="http://www.w3.org/2000/svg" xmlns:xlink="http://www.w3.org/1999/xlink" viewBox="0 0 227.12 55.5">
<title>Google Play 2012-2015 logo - Brandlogos.net</title><defs><clipPath id="uuid-0e468ddb-e8cf-4084-bdfe-b2d8a8db2c22"><path d="M36.49,19.97l-11.61-6.7S3.73,1.06,2.48.34C1.24-.38,0,.05,0,1.56v52.69c0,1.12.89,1.61,1.97.99,1.08-.62,22.91-13.23,22.91-13.23l11.61-6.7s9.85-5.69,11.16-6.44c1.31-.76,1.18-1.79.08-2.39s-11.24-6.49-11.24-6.49Z" style="fill:none;"/></clipPath><linearGradient id="uuid-c41551e7-0a3e-4d64-a484-6ec552616de3" x1="14.38" y1="-.89" x2="14.38" y2="56.16" gradientUnits="userSpaceOnUse"><stop offset="0" stop-color="#207cb0"/><stop offset=".38" stop-color="#3bb2be"/><stop offset=".8" stop-color="#57e9ce"/><stop offset="1" stop-color="#63ffd4"/></linearGradient><linearGradient id="uuid-ed68bb7c-79cf-4924-9b1e-8419e38f5f85" x1="0" y1="13.27" x2="36.49" y2="13.27" gradientUnits="userSpaceOnUse"><stop offset="0" stop-color="#4bc3ae"/><stop offset="1" stop-color="#dee999"/></linearGradient><linearGradient id="uuid-ccac9f88-8b31-4b25-9037-02cf522c5981" x1="18.25" y1="27.63" x2="18.25" y2="56.36" gradientUnits="userSpaceOnUse"><stop offset="0" stop-color="#ec403d"/><stop offset=".38" stop-color="#c83a75"/><stop offset=".8" stop-color="#a635ac"/><stop offset="1" stop-color="#9934c2"/></linearGradient><linearGradient id="uuid-94062b46-a48c-40c0-80e3-19102a1d8128" x1="39.26" y1="19.97" x2="39.26" y2="35.29" gradientUnits="userSpaceOnUse"><stop offset="0" stop-color="#f87"/><stop offset=".61" stop-color="#ffb175"/><stop offset="1" stop-color="#ffc774"/></linearGradient></defs><g id="uuid-d8f47737-1d4c-4f34-8ada-ae370d67890e"><g style="clip-path:url(#uuid-0e468ddb-e8cf-4084-bdfe-b2d8a8db2c22);"><polygon points="0 -.89 0 27.63 0 56.16 28.76 27.63 0 -.89" style="fill:url(#uuid-c41551e7-0a3e-4d64-a484-6ec552616de3);"/><polygon points="36.49 19.97 24.88 13.27 0 -1.1 0 -.89 28.76 27.63 36.49 19.97" style="fill:url(#uuid-ed68bb7c-79cf-4924-9b1e-8419e38f5f85);"/><polygon points="0 56.16 0 56.36 24.88 42 36.49 35.29 28.76 27.63 0 56.16" style="fill:url(#uuid-ccac9f88-8b31-4b25-9037-02cf522c5981);"/><polygon points="36.49 19.97 28.76 27.63 36.49 35.29 49.76 27.63 36.49 19.97" style="fill:url(#uuid-94062b46-a48c-40c0-80e3-19102a1d8128);"/></g></g><path d="M181.09,38.79c-1.08,0-2.07-.2-2.96-.6-.89-.4-1.64-1.01-2.25-1.84h-.18c.12.97.18,1.89.18,2.75v6.83h-2.51v-24.04h2.04l.35,2.27h.12c.65-.91,1.4-1.56,2.26-1.97.86-.4,1.84-.61,2.95-.61,2.2,0,3.9.75,5.09,2.26,1.2,1.5,1.79,3.61,1.79,6.33s-.61,4.84-1.82,6.35c-1.22,1.51-2.9,2.26-5.06,2.26ZM180.73,23.72c-1.7,0-2.92.47-3.68,1.41-.76.94-1.14,2.43-1.17,4.48v.56c0,2.33.39,4,1.17,5,.78,1,2.02,1.51,3.74,1.51,1.43,0,2.56-.58,3.37-1.74.81-1.16,1.22-2.76,1.22-4.8s-.41-3.66-1.22-4.76c-.81-1.11-1.96-1.66-3.43-1.66Z" style="fill:gray;"/><path d="M193.8,38.48h-2.51V14.93h2.51v23.55Z" style="fill:gray;"/><path d="M208.24,38.48l-.5-2.36h-.12c-.83,1.04-1.65,1.74-2.47,2.11-.82.37-1.85.55-3.08.55-1.64,0-2.93-.42-3.87-1.27-.93-.85-1.4-2.05-1.4-3.62,0-3.35,2.68-5.11,8.04-5.27l2.82-.09v-1.03c0-1.3-.28-2.26-.84-2.88-.56-.62-1.46-.93-2.69-.93-1.38,0-2.95.42-4.69,1.27l-.77-1.92c.82-.44,1.71-.79,2.69-1.04.97-.25,1.95-.38,2.93-.38,1.98,0,3.44.44,4.4,1.32.95.88,1.43,2.29,1.43,4.22v11.32h-1.86ZM202.57,36.71c1.56,0,2.79-.43,3.69-1.29.89-.86,1.34-2.06,1.34-3.6v-1.5l-2.51.11c-2,.07-3.44.38-4.32.93-.88.55-1.32,1.41-1.32,2.57,0,.91.27,1.6.82,2.07.55.47,1.32.71,2.31.71Z" style="fill:gray;"/><path d="M211.56,21.89h2.69l3.63,9.46c.8,2.16,1.29,3.72,1.48,4.68h.12c.13-.52.41-1.4.82-2.64.42-1.25,1.79-5.08,4.11-11.5h2.7l-7.13,18.89c-.71,1.87-1.53,3.19-2.48,3.97-.94.78-2.1,1.17-3.47,1.17-.77,0-1.52-.09-2.27-.26v-2.01c.55.12,1.18.18,1.86.18,1.72,0,2.96-.97,3.69-2.91l.92-2.36-6.69-16.68Z" style="fill:gray;"/><path d="M134.55,23.43c.8.66,2.46,2.05,2.46,4.69s-1.46,3.78-2.91,4.93c-.45.45-.97.94-.97,1.7s.52,1.18.9,1.49l1.25.97c1.53,1.28,2.91,2.46,2.91,4.86,0,3.26-3.16,6.56-9.12,6.56-5.03,0-7.46-2.39-7.46-4.96,0-1.25.62-3.02,2.67-4.23,2.15-1.32,5.07-1.49,6.63-1.6-.49-.62-1.04-1.28-1.04-2.36,0-.59.17-.94.35-1.35-.38.04-.76.07-1.11.07-3.68,0-5.76-2.74-5.76-5.45,0-1.6.73-3.37,2.22-4.65,1.98-1.63,4.34-1.91,6.21-1.91h7.15l-2.22,1.25h-2.15ZM132.08,38.84c-.28-.04-.45-.04-.8-.04-.31,0-2.19.07-3.64.56-.76.28-2.98,1.11-2.98,3.57s2.39,4.23,6.11,4.23c3.33,0,5.1-1.6,5.1-3.75,0-1.77-1.15-2.71-3.78-4.58ZM133.09,32.25c.8-.8.87-1.91.87-2.53,0-2.5-1.49-6.38-4.37-6.38-.9,0-1.87.45-2.43,1.15-.59.73-.76,1.66-.76,2.57,0,2.32,1.35,6.18,4.34,6.18.87,0,1.8-.42,2.36-.97Z" style="fill:#7f7f7f;"/><path d="M112.7,38.29c-5.51,0-8.45-4.3-8.45-8.18,0-4.54,3.71-8.42,8.97-8.42s8.28,3.98,8.28,8.18-3.15,8.42-8.8,8.42ZM117.03,35.48c.83-1.11,1.04-2.49,1.04-3.85,0-3.05-1.45-8.87-5.75-8.87-1.14,0-2.29.45-3.12,1.18-1.35,1.21-1.6,2.74-1.6,4.23,0,3.43,1.7,9.07,5.89,9.07,1.35,0,2.74-.66,3.53-1.76Z" style="fill:#7f7f7f;"/><path d="M93.93,38.29c-5.51,0-8.45-4.3-8.45-8.18,0-4.54,3.71-8.42,8.97-8.42s8.28,3.98,8.28,8.18-3.15,8.42-8.8,8.42ZM98.26,35.48c.83-1.11,1.04-2.49,1.04-3.85,0-3.05-1.46-8.87-5.75-8.87-1.14,0-2.29.45-3.12,1.18-1.35,1.21-1.59,2.74-1.59,4.23,0,3.43,1.7,9.07,5.89,9.07,1.35,0,2.74-.66,3.53-1.76Z" style="fill:#7f7f7f;"/><path d="M82.83,37.74l-4.98,1.15c-2.02.31-3.83.59-5.75.59-9.61,0-13.27-7.07-13.27-12.61,0-6.76,5.19-13.02,14.07-13.02,1.88,0,3.69.28,5.33.73,2.61.73,3.83,1.64,4.6,2.16l-2.89,2.75-1.22.28.87-1.39c-1.18-1.15-3.34-3.27-7.45-3.27-5.5,0-9.65,4.18-9.65,10.28,0,6.55,4.74,12.71,12.33,12.71,2.23,0,3.38-.45,4.42-.87v-5.61l-5.26.28,2.79-1.5h7.38l-.9.87c-.25.21-.28.28-.35.56-.04.31-.07,1.33-.07,1.67v4.25Z" style="fill:#7f7f7f;"/><path d="M145.56,36.74c-1.15-.1-1.39-.31-1.39-1.67V15.36c0-.08.01-.15.02-.22.14-1.22.49-1.43,1.57-2.06h-4.98l-2.61,1.25h2.66v.02h0s0,20.34,0,20.34v1.15c0,.7-.14.8-.94,1.84h6.17l1.29-.76c-.59-.07-1.19-.11-1.78-.17Z" style="fill:#7f7f7f;"/><path d="M159.73,37.06c-.38.21-.76.45-1.14.62-1.14.52-2.32.66-3.36.66-1.1,0-2.83-.07-4.6-1.35-2.46-1.73-3.53-4.71-3.53-7.3,0-5.36,4.36-7.99,7.92-7.99,1.24,0,2.53.31,3.56.97,1.73,1.14,2.18,2.63,2.42,3.42l-8.13,3.29-2.66.21c.86,4.39,3.84,6.95,7.12,6.95,1.76,0,3.04-.62,4.22-1.21l-1.83,1.73ZM156.48,26.75c.66-.24,1-.45,1-.93,0-1.38-1.56-2.98-3.43-2.98-1.38,0-3.98,1.07-3.98,4.81,0,.59.07,1.21.11,1.83l6.29-2.73Z" style="fill:#7f7f7f;"/><path d="M163.07,21.94v2.28h-.28v-2.28h-.75v-.24h1.79v.24h-.76Z" style="fill:#7f7f7f;"/><path d="M166.18,24.22v-2.3h-.01l-.7,2.3h-.22l-.71-2.3h0v2.3h-.25v-2.52h.43l.64,2.04h0l.63-2.04h.44v2.52h-.25Z" style="fill:#7f7f7f;"/></svg>